<svg xmlns="http://www.w3.org/2000/svg" viewBox="0 0 14.11 11.65"><defs><style>.cls-1{fill:#be936a;}.cls-1,.cls-2,.cls-3,.cls-4{stroke:#231f20;stroke-width:0.5px;}.cls-1,.cls-2,.cls-3{stroke-linecap:round;stroke-linejoin:round;}.cls-2{fill:none;}.cls-3{fill:#fff;}.cls-4{fill:#f8e984;stroke-miterlimit:10;}</style></defs><title>Asset 7</title><g id="Layer_2" data-name="Layer 2"><g id="Layer_1-2" data-name="Layer 1"><path class="cls-1" d="M12.44,11.4H1.67A1.42,1.42,0,0,1,.25,10V4.09A1.42,1.42,0,0,1,1.67,2.67H12.44a1.42,1.42,0,0,1,1.42,1.42V10A1.42,1.42,0,0,1,12.44,11.4Z"/><path class="cls-2" d="M1,5.74a5.68,5.68,0,0,1-.6-.5"/><path class="cls-2" d="M2.12,6.39c-.16-.08-.28-.12-.43-.21"/><path class="cls-2" d="M13.86,5.14s-3,2.26-5.61,2.07h-3A11.3,11.3,0,0,1,3,6.69"/><path class="cls-3" d="M.25,9H2.36a0,0,0,0,1,0,0V11.4a0,0,0,0,1,0,0H1.62A1.37,1.37,0,0,1,.25,10V9A0,0,0,0,1,.25,9Z"/><path class="cls-3" d="M13.12,9h.74a0,0,0,0,1,0,0V11.4a0,0,0,0,1,0,0H11.75a0,0,0,0,1,0,0v-1A1.37,1.37,0,0,1,13.12,9Z" transform="translate(25.61 20.39) rotate(180)"/><rect class="cls-4" x="5.44" y="5.95" width="3.11" height="2.52" rx="0.63"/><path class="cls-3" d="M4.51,2.51v-1a.42.42,0,0,1,.42-.42h4a.42.42,0,0,1,.42.42v1h.85V1A.75.75,0,0,0,9.46.25H4.41A.75.75,0,0,0,3.66,1V2.51Z"/></g></g></svg>