<svg xmlns="http://www.w3.org/2000/svg" viewBox="0 0 14.06 13.43"><defs><style>.cls-1{fill:#fff;}.cls-1,.cls-2,.cls-3,.cls-4,.cls-5{stroke:#231f20;stroke-width:0.5px;}.cls-1,.cls-2,.cls-4,.cls-5{stroke-linecap:round;stroke-linejoin:round;}.cls-2{fill:#e2a766;}.cls-3{fill:#f8e984;stroke-miterlimit:10;}.cls-4{fill:#ecb825;}.cls-5{fill:#c66;}</style></defs><title>Asset 5</title><g id="Layer_2" data-name="Layer 2"><g id="Layer_1-2" data-name="Layer 1"><rect class="cls-1" x="0.25" y="1.51" width="12.3" height="11.67" rx="1.43"/><circle class="cls-2" cx="2.67" cy="5.93" r="0.83"/><circle class="cls-2" cx="2.67" cy="8.76" r="0.83"/><circle class="cls-2" cx="5.22" cy="5.93" r="0.83"/><circle class="cls-2" cx="5.22" cy="8.76" r="0.83"/><circle class="cls-2" cx="7.78" cy="5.93" r="0.83"/><circle class="cls-2" cx="7.78" cy="8.76" r="0.83"/><circle class="cls-2" cx="10.33" cy="5.93" r="0.83"/><circle class="cls-2" cx="10.33" cy="8.76" r="0.83"/><path class="cls-3" d="M.82,3.78H.28v-1a1.3,1.3,0,0,1,1.3-1.3h9.64a1.3,1.3,0,0,1,1.3,1.3v1H2.74"/><line class="cls-4" x1="1.83" y1="3.78" x2="1.37" y2="3.78"/><rect class="cls-5" x="2.89" y="0.25" width="1.11" height="2.44" rx="0.56"/><rect class="cls-5" x="8.94" y="0.25" width="1.11" height="2.44" rx="0.56"/><path class="cls-2" d="M2.24,11.39V12a1.17,1.17,0,0,1-.74,1v.15H12.08a1.63,1.63,0,0,0,1.73-1.49h0a.33.33,0,0,0-.35-.3Z"/></g></g></svg>