<svg xmlns="http://www.w3.org/2000/svg" viewBox="0 0 17.65 20.8"><defs><style>.cls-1{fill:#fff;}.cls-2{fill:#faddb8;}.cls-2,.cls-3,.cls-4,.cls-5,.cls-6{stroke:#231f20;stroke-linecap:round;stroke-linejoin:round;stroke-width:0.5px;}.cls-3{fill:#e36b49;}.cls-4{fill:#fcdcb6;}.cls-5{fill:#7d7c77;}.cls-6{fill:none;}</style></defs><title>Asset 15</title><g id="Layer_2" data-name="Layer 2"><g id="Layer_1-2" data-name="Layer 1"><circle class="cls-1" cx="8.82" cy="9.16" r="8.82"/><path class="cls-2" d="M12.65,6.1h.66a1,1,0,0,1,1,1v0a1,1,0,0,1-1,1h-.66a0,0,0,0,1,0,0V6.1A0,0,0,0,1,12.65,6.1Z"/><path class="cls-2" d="M3.32,6.1H4a1,1,0,0,1,1,1v0a1,1,0,0,1-1,1H3.32a0,0,0,0,1,0,0V6.1A0,0,0,0,1,3.32,6.1Z" transform="translate(8.33 14.26) rotate(-180)"/><path class="cls-3" d="M5.09,14h7.56a3.5,3.5,0,0,1,3.5,3.5v3.08a0,0,0,0,1,0,0H1.59a0,0,0,0,1,0,0V17.46A3.5,3.5,0,0,1,5.09,14Z"/><rect class="cls-4" x="13.27" y="18.74" width="2.87" height="1.78"/><rect class="cls-4" x="1.59" y="18.74" width="2.87" height="1.78"/><path class="cls-4" d="M10.73,14V11.21H7.23V14H6.11a2.61,2.61,0,0,0,2.71,2.5A2.62,2.62,0,0,0,11.54,14Z"/><path class="cls-2" d="M8.82,12A3.9,3.9,0,0,1,5,8V3.53h7.63V8A3.9,3.9,0,0,1,8.82,12Z"/><path class="cls-5" d="M4.7,3.24c-.46-.67-.94-1.95,1.09-3A1.34,1.34,0,0,0,7.16,1.47h3.7s2,.26,1.78,2.08V5.6L11.52,4.16a1.08,1.08,0,0,0-.82-.4l-4.41,0h-.7A1.11,1.11,0,0,1,4.7,3.24Z"/><circle class="cls-6" cx="6.85" cy="6.78" r="0.56"/><circle class="cls-6" cx="10.99" cy="6.78" r="0.56"/><path class="cls-6" d="M8.82,6.78s-.14,1.16-.59,1.49h1"/><path class="cls-6" d="M8.46,9.88a2,2,0,0,0,1.41-.81"/><line class="cls-5" x1="13.27" y1="18.61" x2="13.27" y2="17.8"/><line class="cls-5" x1="4.47" y1="18.61" x2="4.47" y2="17.8"/><polyline class="cls-5" points="5.01 5.6 6.85 3.8 5.04 3.77 5.01 5.86"/></g></g></svg>