<svg xmlns="http://www.w3.org/2000/svg" viewBox="0 0 14.14 17.4"><defs><style>.cls-1{fill:#f8e984;stroke-miterlimit:10;}.cls-1,.cls-2,.cls-3,.cls-4,.cls-5{stroke:#231f20;stroke-width:0.5px;}.cls-2{fill:#f2dac1;}.cls-2,.cls-3,.cls-4,.cls-5{stroke-linecap:round;stroke-linejoin:round;}.cls-3{fill:none;}.cls-4{fill:#fff;}.cls-5{fill:#be936a;}</style></defs><title>Asset 6</title><g id="Layer_2" data-name="Layer 2"><g id="Layer_1-2" data-name="Layer 1"><path class="cls-1" d="M4.32,12H9.81a4.07,4.07,0,0,1,4.07,4.07v1.09a0,0,0,0,1,0,0H.25a0,0,0,0,1,0,0V16.05A4.07,4.07,0,0,1,4.32,12Z"/><rect class="cls-2" x="4.48" y="9.64" width="5.23" height="2.34"/><line class="cls-3" x1="11.17" y1="15.48" x2="11.17" y2="17.15"/><line class="cls-3" x1="3.03" y1="15.59" x2="3.03" y2="16.98"/><polygon class="cls-4" points="4.55 12 4.72 15.59 7.07 13.67 4.67 11.98 4.55 12"/><polygon class="cls-4" points="9.59 11.98 7.18 13.67 9.53 15.59 9.71 12 9.59 11.98"/><path class="cls-2" d="M3.83,4.09h6.39a0,0,0,0,1,0,0v3.8A3.19,3.19,0,0,1,7,11.08H7A3.19,3.19,0,0,1,3.83,7.89V4.09A0,0,0,0,1,3.83,4.09Z"/><path class="cls-2" d="M2.87,6.62h1a0,0,0,0,1,0,0V8.55a0,0,0,0,1,0,0h0a1,1,0,0,1-1-1v-1A0,0,0,0,1,2.87,6.62Z"/><path class="cls-2" d="M11.18,6.74h0a0,0,0,0,1,0,0V8.68a0,0,0,0,1,0,0h-1a0,0,0,0,1,0,0v-1A1,1,0,0,1,11.18,6.74Z" transform="translate(21.4 15.43) rotate(180)"/><path class="cls-5" d="M7,.25A4.23,4.23,0,0,0,2.8,4.48h0v2l1,.15,0-1.89c.4,1.81,3.63,2.44,3.63,2.44-.25-.22-.11-1.74-.11-1.74C7.48,6.15,9.69,7,9.69,7L10,5.71,10,7h1.31V4.48h0A4.23,4.23,0,0,0,7,.25Z"/></g></g></svg>