<svg xmlns="http://www.w3.org/2000/svg" viewBox="0 0 11.78 14.21"><defs><style>.cls-1{fill:none;}.cls-1,.cls-2,.cls-3,.cls-4,.cls-5,.cls-6{stroke:#231f20;stroke-linecap:round;stroke-linejoin:round;stroke-width:0.5px;}.cls-2{fill:#8b5e3c;}.cls-3{fill:#00a651;}.cls-4{fill:#00aeef;}.cls-5{fill:#b21f24;}.cls-6{fill:#fdbd60;}.cls-7{fill:#231f20;}</style></defs><title>Asset 8</title><g id="Layer_2" data-name="Layer 2"><g id="Layer_1-2" data-name="Layer 1"><path class="cls-1" d="M3.88,2.47C4,1.55,6.25-2,8.12,2.47"/><path class="cls-2" d="M1,4.36s2.11-2,3.16-1.94H8.31s2.77,1.39,2.83,1.94l.07,1.34H.81Z"/><polyline class="cls-3" points="6.72 5.49 6.78 1.9 9.94 2.48 9.83 5.49"/><polyline class="cls-4" points="4.94 5.84 4.89 1.9 1.72 2.54 1.83 5.84"/><polyline class="cls-5" points="3.67 6.7 3.5 3.73 7.14 2.89 7.44 6.54"/><polygon class="cls-6" points="11.53 13.96 0.25 13.96 0.84 5.21 11.19 5.21 11.53 13.96"/><path class="cls-1" d="M3.87,7.7v.87a2.13,2.13,0,0,0,4.26,0V7.73"/><circle class="cls-7" cx="3.87" cy="7.56" r="0.66"/><circle class="cls-7" cx="8.13" cy="7.56" r="0.66"/></g></g></svg>